<?xml version="1.0" encoding="UTF-8"?>
<svg width="32" height="32" viewBox="0 0 32 32" fill="none" xmlns="http://www.w3.org/2000/svg">
  <path d="M16 0C10.477 0 6 4.477 6 10C6 17.5 16 32 16 32C16 32 26 17.5 26 10C26 4.477 21.523 0 16 0Z" fill="#22C55E"/>
  <path d="M12 7H17C18.6569 7 20 8.34315 20 10V10C20 11.6569 18.6569 13 17 13H12V7Z" fill="white"/>
  <path d="M12 13H17C18.6569 13 20 14.3431 20 16V16C20 17.6569 18.6569 19 17 19H12V13Z" fill="white"/>
  <path d="M14 9H16.5C17.3284 9 18 9.67157 18 10.5C18 11.3284 17.3284 12 16.5 12H14V9Z" fill="#22C55E"/>
  <path d="M14 15H16.5C17.3284 15 18 15.6716 18 16.5C18 17.3284 17.3284 18 16.5 18H14V15Z" fill="#22C55E"/>
</svg> 