<?xml version="1.0" encoding="UTF-8"?>
<svg width="32" height="32" viewBox="0 0 32 32" fill="none" xmlns="http://www.w3.org/2000/svg">
  <path d="M16 0C10.477 0 6 4.477 6 10C6 17.5 16 32 16 32C16 32 26 17.5 26 10C26 4.477 21.523 0 16 0Z" fill="#2563EB"/>
  <path d="M16 14C18.2091 14 20 12.2091 20 10C20 7.79086 18.2091 6 16 6C13.7909 6 12 7.79086 12 10C12 12.2091 13.7909 14 16 14Z" fill="white"/>
  <path d="M14 9.5C14 8.67157 14.6716 8 15.5 8H16.5C17.3284 8 18 8.67157 18 9.5C18 10.3284 17.3284 11 16.5 11H15.5C14.6716 11 14 10.3284 14 9.5Z" fill="#2563EB"/>
</svg> 