<?xml version="1.0" encoding="UTF-8"?>
<svg width="32" height="42" viewBox="0 0 32 42" fill="none" xmlns="http://www.w3.org/2000/svg">
  <path d="M16 0C7.16344 0 0 7.16344 0 16C0 28 16 42 16 42C16 42 32 28 32 16C32 7.16344 24.8366 0 16 0Z" fill="#4CAF50"/>
  <path d="M16 8C11.5817 8 8 11.5817 8 16C8 20.4183 11.5817 24 16 24C20.4183 24 24 20.4183 24 16C24 11.5817 20.4183 8 16 8Z" fill="white"/>
  <path d="M12 11V21H14V17H17C18.6569 17 20 15.6569 20 14C20 12.3431 18.6569 11 17 11H12ZM14 13H17C17.5523 13 18 13.4477 18 14C18 14.5523 17.5523 15 17 15H14V13Z" fill="#4CAF50"/>
</svg> 