<?xml version="1.0" encoding="UTF-8"?>
<svg width="32" height="42" viewBox="0 0 32 42" fill="none" xmlns="http://www.w3.org/2000/svg">
  <path d="M16 0C7.16344 0 0 7.16344 0 16C0 28 16 42 16 42C16 42 32 28 32 16C32 7.16344 24.8366 0 16 0Z" fill="#F44336"/>
  <path d="M16 8C11.5817 8 8 11.5817 8 16C8 20.4183 11.5817 24 16 24C20.4183 24 24 20.4183 24 16C24 11.5817 20.4183 8 16 8Z" fill="white"/>
  <path d="M16 10C12.6863 10 10 12.6863 10 16C10 19.3137 12.6863 22 16 22C19.3137 22 22 19.3137 22 16C22 12.6863 19.3137 10 16 10Z" fill="#F44336"/>
</svg> 