<svg id="Calque_1" data-name="Calque 1" xmlns="http://www.w3.org/2000/svg" xmlns:xlink="http://www.w3.org/1999/xlink" viewBox="0 0 1417.32 261.85"><defs><style>.cls-1{fill:none;}.cls-2{fill:#003258;}.cls-3{clip-path:url(#clip-path);}</style><clipPath id="clip-path"><rect class="cls-1" width="1417.32" height="261.85"/></clipPath></defs><polygon class="cls-2" points="93.68 106.04 160.55 39.44 88.64 39.46 49.69 106.96 55.69 118.85 93.68 106.04"/><polygon class="cls-2" points="108.17 128.52 205.54 106.94 205.55 106.92 201.78 100.39 177.64 107.07 196.75 91.68 194.52 87.81 164.75 96.26 188.95 78.17 186.3 73.58 154.39 85.11 180.27 63.15 177.12 57.69 143.57 75.02 170.65 46.49 166.57 39.44 96.39 110.32 59.1 123.24 76.7 153.7 108.17 128.52"/><polygon class="cls-2" points="110.34 133.09 79.4 158.39 88.67 174.44 166.6 174.42 202.65 111.96 110.34 133.09"/><path class="cls-2" d="M374.72,39.53,336,140.36H280V39.53H241.93V174.3h124l6.87-18.05h46.88l6.87,18.05h43L417.69,39.53Zm8.84,88.67,12.75-32.76,12.55,32.76Z"/><polygon class="cls-2" points="540.42 39.53 510.21 118.39 479.8 39.53 436.83 39.53 488.63 174.3 531.59 174.3 583.38 39.53 540.42 39.53"/><g class="cls-3"><path class="cls-2" d="M1227,90.59c-19.22-4.12-23.93-6.28-23.93-13.15,0-5.1,4.51-8.82,13.73-8.82,12.16,0,25.89,4.51,38.45,13.53l19-26.87c-14.91-12-33.15-18.25-56.5-18.25-23.1,0-40.52,9.15-48.44,24.34V39.53h-38.05v72.19l-52.58-72.19h-38.06V162.87L993.3,39.53h-43l-48.7,126.73-26.51-37.67c16.48-7.65,26.68-22.75,26.68-42,0-27.66-21.38-47.08-51.59-47.08H602.53L550.74,174.3h43l6.87-18.05h46.88l6.87,18.05h43L658.53,73.47h49.53V174.3h38.06V73.47h39.54V174.3h38.07V133.7h11.76l28.45,40.6h77.57l6.86-18.05h46.89l6.86,18.05h76.63V102.11l52.58,72.19h38.05V162c15.35,9.61,33.79,14.53,53.15,14.53,33.74,0,55.52-16.68,55.52-45.12,0-25.7-19.62-34.14-51-40.8M611.36,128.2l12.75-32.76,12.55,32.76Zm235.71-29H823.73V74.05h23.34c9,0,15.49,5.3,15.49,12.56s-6.47,12.56-15.49,12.56m112.09,29,12.76-32.76,12.55,32.76Zm264.74,16.73c-15.88,0-30.8-5.69-44.53-16.48l-10,11.93V100.06c8.08,13.4,25.78,18.82,47.07,23.68,18.64,4.31,23.34,5.29,23.34,11.77,0,5.89-5.49,9.42-15.89,9.42"/><polygon class="cls-2" points="903.27 242.39 903.27 212.28 908.36 212.28 908.36 237.56 922.09 237.56 922.09 242.39 903.27 242.39"/><path class="cls-2" d="M947.08,233.05h-18a5.17,5.17,0,0,0,2.28,4,8.84,8.84,0,0,0,11.37-1.18l2.76,3a12.76,12.76,0,0,1-9.65,3.84,11.47,11.47,0,0,1-8.2-3.21,11.29,11.29,0,0,1-3.38-8.61,11.14,11.14,0,0,1,3.44-8.6,11.58,11.58,0,0,1,8.12-3.18A11.75,11.75,0,0,1,943.8,222a9.7,9.7,0,0,1,3.28,7.78Zm-18-3.8h13.14a5.53,5.53,0,0,0-1.81-4.44,6.65,6.65,0,0,0-4.46-1.55,7.6,7.6,0,0,0-4.76,1.62,5.19,5.19,0,0,0-2.11,4.37"/><path class="cls-2" d="M982.79,214.91c2.09,1.75,3.15,4.45,3.15,8.09s-1.08,6.32-3.21,8-5.42,2.54-9.85,2.54h-5.34v8.83h-5.08V212.28H972.8c4.56,0,7.9.87,10,2.63m-3.6,12.42a6.62,6.62,0,0,0,1.53-4.74c0-2.08-.65-3.55-1.93-4.4s-3.32-1.3-6.08-1.3h-5.17V229h5.9q4.21,0,5.75-1.62"/><path class="cls-2" d="M1002,224a6.43,6.43,0,0,0-5.39,2.33,10,10,0,0,0-1.8,6.25v9.82H990V219.47h4.83v4.62a9.88,9.88,0,0,1,3.16-3.54,7.59,7.59,0,0,1,4.25-1.42l0,4.86Z"/><path class="cls-2" d="M1024.66,239.3a12.55,12.55,0,0,1-17.24,0,11.91,11.91,0,0,1,0-16.75,12.57,12.57,0,0,1,17.24,0,11.91,11.91,0,0,1,0,16.75m-13.81-3a7.49,7.49,0,0,0,10.38,0,8.15,8.15,0,0,0,0-10.81,7.49,7.49,0,0,0-10.38,0,8.18,8.18,0,0,0,0,10.81"/><path class="cls-2" d="M1044.64,219.12a10.89,10.89,0,0,1,7.88,3.19,11.28,11.28,0,0,1,3.28,8.49,11.76,11.76,0,0,1-3.25,8.61,10.07,10.07,0,0,1-15.35-.47v11.8h-4.83V219.47h4.83v4a8.57,8.57,0,0,1,7.44-4.35M1037.11,231a7.53,7.53,0,0,0,2,5.37,6.45,6.45,0,0,0,4.84,2.09,6.8,6.8,0,0,0,4.94-2.08A7.15,7.15,0,0,0,1051,231a7.57,7.57,0,0,0-2.07-5.46,6.57,6.57,0,0,0-5-2.18,6.33,6.33,0,0,0-4.87,2.18,7.77,7.77,0,0,0-2,5.44"/><path class="cls-2" d="M1072.13,224a6.41,6.41,0,0,0-5.39,2.33,9.94,9.94,0,0,0-1.8,6.25v9.82h-4.83V219.47h4.83v4.62a9.79,9.79,0,0,1,3.16-3.54,7.56,7.56,0,0,1,4.24-1.42l.05,4.86Z"/><path class="cls-2" d="M1097.32,233.05h-18a5.21,5.21,0,0,0,2.29,4,8.84,8.84,0,0,0,11.37-1.18l2.76,3a12.78,12.78,0,0,1-9.65,3.84,11.48,11.48,0,0,1-8.21-3.21,11.33,11.33,0,0,1-3.38-8.61,11.14,11.14,0,0,1,3.45-8.6,11.54,11.54,0,0,1,8.11-3.18,11.76,11.76,0,0,1,8,2.82,9.73,9.73,0,0,1,3.27,7.78Zm-18-3.8h13.14a5.53,5.53,0,0,0-1.81-4.44,6.64,6.64,0,0,0-4.46-1.55,7.57,7.57,0,0,0-4.75,1.62,5.2,5.2,0,0,0-2.12,4.37"/><path class="cls-2" d="M1113.78,239.46a11.76,11.76,0,0,1-3.23-8.62,11.26,11.26,0,0,1,3.32-8.53,11,11,0,0,1,7.9-3.18,8.68,8.68,0,0,1,7.39,3.87V210.42H1134v32h-4.82V239a9,9,0,0,1-7.8,3.78,10.33,10.33,0,0,1-7.58-3.27m1.59-8.43a7.19,7.19,0,0,0,2.12,5.37,6.84,6.84,0,0,0,5,2.07,6.44,6.44,0,0,0,4.83-2.09,7.53,7.53,0,0,0,2-5.36,8,8,0,0,0-2-5.48,6.33,6.33,0,0,0-4.87-2.19,6.58,6.58,0,0,0-5,2.19,7.71,7.71,0,0,0-2.07,5.49"/><path class="cls-2" d="M1155.78,231.87v-12.4h4.82v22.91h-4.82v-4.17a8.65,8.65,0,0,1-3.21,3.31,9.13,9.13,0,0,1-10.68-1.16q-2.4-2.37-2.4-6.85v-14h4.84v12.58c0,4.22,1.74,6.33,5.25,6.33a6.36,6.36,0,0,0,4.35-1.66,6.14,6.14,0,0,0,1.85-4.85"/><polygon class="cls-2" points="1189.04 216.93 1189.04 242.39 1183.95 242.39 1183.95 216.93 1174.82 216.93 1174.82 212.28 1198.16 212.28 1198.16 216.93 1189.04 216.93"/><path class="cls-2" d="M1213.79,224a6.44,6.44,0,0,0-5.39,2.33,10,10,0,0,0-1.8,6.25v9.82h-4.82V219.47h4.82v4.62a10,10,0,0,1,3.16-3.54,7.59,7.59,0,0,1,4.25-1.42l0,4.86Z"/><path class="cls-2" d="M1236,242.39h-4.39v-3.06a9.41,9.41,0,0,1-7.62,3.4,8.67,8.67,0,0,1-5.92-2,6.76,6.76,0,0,1-2.35-5.4,5.68,5.68,0,0,1,2.5-5.06,11.93,11.93,0,0,1,6.76-1.68h6.25v-.86c0-3-1.7-4.57-5.08-4.57a11.87,11.87,0,0,0-6.64,2.33l-2.15-3a14.81,14.81,0,0,1,9.47-3.31,10.27,10.27,0,0,1,6.61,2c1.72,1.37,2.56,3.52,2.56,6.44Zm-4.82-8.53v-1.94h-5.43q-5.2,0-5.21,3.27a2.9,2.9,0,0,0,1.29,2.56,6.35,6.35,0,0,0,3.6.88,6.5,6.5,0,0,0,4-1.28,4.12,4.12,0,0,0,1.73-3.49"/><path class="cls-2" d="M1246.37,230v12.4h-4.82V219.47h4.82v4.18a8.75,8.75,0,0,1,3.21-3.32,9.16,9.16,0,0,1,10.68,1.17c1.59,1.57,2.4,3.86,2.4,6.84v14h-4.83V229.81c0-4.23-1.75-6.33-5.26-6.33a6.29,6.29,0,0,0-4.34,1.65,6.14,6.14,0,0,0-1.86,4.85"/><path class="cls-2" d="M1284.49,235.53a6.48,6.48,0,0,1-2.37,5.24,9.21,9.21,0,0,1-6.08,2,16.39,16.39,0,0,1-5.19-.9,15.68,15.68,0,0,1-4.75-2.54l2.33-3.76a12.91,12.91,0,0,0,7.75,3,4.06,4.06,0,0,0,2.58-.75,2.35,2.35,0,0,0,1-1.92c0-1.15-1.53-2.18-4.57-3.1a4.25,4.25,0,0,0-.52-.17q-7.14-2-7.15-6.46A6.12,6.12,0,0,1,1270,221a10.27,10.27,0,0,1,6.44-1.91,13.43,13.43,0,0,1,7.5,2.32l-1.82,3.57a10.8,10.8,0,0,0-6.07-1.84,5.61,5.61,0,0,0-2.8.62,2,2,0,0,0-1.08,1.88,1.73,1.73,0,0,0,1.12,1.63,10.74,10.74,0,0,0,2.18.73c.93.23,1.76.46,2.48.69s1.41.49,2.08.78a13.45,13.45,0,0,1,2.18,1.2,5.39,5.39,0,0,1,2.33,4.82"/><path class="cls-2" d="M1301,219.12a10.88,10.88,0,0,1,7.88,3.19,11.28,11.28,0,0,1,3.28,8.49,11.76,11.76,0,0,1-3.25,8.61,10.09,10.09,0,0,1-15.36-.47v11.8h-4.82V219.47h4.82v4c1.9-2.89,4.39-4.35,7.45-4.35M1293.49,231a7.5,7.5,0,0,0,2,5.37,6.41,6.41,0,0,0,4.83,2.09,6.82,6.82,0,0,0,5-2.08,7.18,7.18,0,0,0,2.11-5.36,7.57,7.57,0,0,0-2.07-5.46,6.56,6.56,0,0,0-5-2.18,6.3,6.3,0,0,0-4.86,2.18,7.74,7.74,0,0,0-2,5.44"/><path class="cls-2" d="M1335.66,239.3a12.53,12.53,0,0,1-17.23,0,11.91,11.91,0,0,1,0-16.75,12.56,12.56,0,0,1,17.23,0,11.89,11.89,0,0,1,0,16.75m-13.8-3a7.49,7.49,0,0,0,10.38,0,8.18,8.18,0,0,0,0-10.81,7.49,7.49,0,0,0-10.38,0,8.18,8.18,0,0,0,0,10.81"/><path class="cls-2" d="M1355.38,224a6.41,6.41,0,0,0-5.38,2.33,9.94,9.94,0,0,0-1.81,6.25v9.82h-4.82V219.47h4.82v4.62a9.91,9.91,0,0,1,3.17-3.54,7.54,7.54,0,0,1,4.24-1.42l0,4.86Z"/><path class="cls-2" d="M1365.21,223.35V235a3.84,3.84,0,0,0,.85,2.6,3.08,3.08,0,0,0,2.42,1,4.14,4.14,0,0,0,3-1.51l2,3.4a8.17,8.17,0,0,1-5.62,2.29,7.23,7.23,0,0,1-5.25-2.13,7.7,7.7,0,0,1-2.18-5.75v-11.5h-2.89v-3.88h2.89v-7.19h4.83v7.19h6v3.88Z"/></g></svg>