<svg xmlns="http://www.w3.org/2000/svg" width="129.698" height="113.901" viewBox="0 0 129.698 113.901">
  <g id="Logo-RF-Desktop" transform="translate(-40.07 -11.939)">
    <g id="Groupe_4" data-name="Groupe 4" transform="translate(40.123 38)">
      <g id="Groupe_3" data-name="Groupe 3" transform="translate(0 0)">
        <path id="Tracé_1" data-name="Tracé 1" d="M84.005,209.575h4.618c3.324,0,5.374,1.705,5.374,4.511a4.109,4.109,0,0,1-2.417,3.906l4.748,6.69H92.659l-4.014-6.108H87.069v6.108H84.005Zm3.064,2.612v3.777H88.8a1.895,1.895,0,1,0,0-3.777Z" transform="translate(-84.005 -205.367)"/>
        <path id="Tracé_2" data-name="Tracé 2" d="M143.464,196.189h8.805V198.8h-5.741v3.5h4.878v2.611h-4.878v3.777h5.741V211.3h-8.805Zm2.979-1.295,2.439-2.914h3.151l-2.806,2.914Z" transform="translate(-129.242 -191.981)"/>
        <path id="Tracé_3" data-name="Tracé 3" d="M195.165,209.575h4.985c3.324,0,5.352,1.705,5.352,4.511,0,2.784-2.029,4.489-5.352,4.489H198.23v6.108h-3.065Zm3.065,2.612v3.777h2.05a1.9,1.9,0,1,0,0-3.777Z" transform="translate(-168.576 -205.367)"/>
        <path id="Tracé_4" data-name="Tracé 4" d="M257.03,209.575h3.064v9.194c0,3.971-2.331,6.345-6.129,6.345-3.777,0-6.107-2.374-6.107-6.345v-9.194h3.065v9.453a3.058,3.058,0,1,0,6.108,0Z" transform="translate(-208.665 -205.367)"/>
        <path id="Tracé_5" data-name="Tracé 5" d="M314.9,209.575h4.295c3.151,0,5.05,1.554,5.05,4.1a3.532,3.532,0,0,1-1.6,2.978,3.844,3.844,0,0,1,2.482,3.582c0,2.762-2.137,4.446-5.611,4.446H314.9Zm3.065,2.612v3.3h1.295c1.165,0,1.835-.583,1.835-1.662,0-1.014-.669-1.64-1.835-1.64Zm0,5.935v3.949h1.726c1.424,0,2.288-.755,2.288-2.007s-.863-1.943-2.288-1.943Z" transform="translate(-259.667 -205.367)"/>
        <path id="Tracé_6" data-name="Tracé 6" d="M370.749,209.575h3.064V221.9h5.741v2.784h-8.805Z" transform="translate(-302.16 -205.367)"/>
        <path id="Tracé_7" data-name="Tracé 7" d="M418.84,209.575H421.9v15.107H418.84Z" transform="translate(-338.748 -205.367)"/>
        <path id="Tracé_8" data-name="Tracé 8" d="M461.059,224.367a3.133,3.133,0,0,0,1.079-.173v2.59a3.989,3.989,0,0,1-1.6.281,7.126,7.126,0,0,1-4.726-1.986l-1.791-1.6a8.02,8.02,0,0,1-2.072.259,7.985,7.985,0,1,1,8.007-7.985,8,8,0,0,1-2.979,6.3l.906.863A4.687,4.687,0,0,0,461.059,224.367Zm-4.252-8.611a4.873,4.873,0,1,0-4.856,5.115A4.86,4.86,0,0,0,456.807,215.756Z" transform="translate(-357.831 -203.994)"/>
        <path id="Tracé_9" data-name="Tracé 9" d="M531.323,209.575h3.064v9.194c0,3.971-2.331,6.345-6.129,6.345-3.777,0-6.108-2.374-6.108-6.345v-9.194h3.065v9.453a3.058,3.058,0,1,0,6.108,0Z" transform="translate(-417.347 -205.367)"/>
        <path id="Tracé_10" data-name="Tracé 10" d="M589.189,209.575h8.806v2.612h-5.741v3.5h4.877v2.611h-4.877v3.777h5.741v2.612h-8.806Z" transform="translate(-468.35 -205.367)"/>
        <path id="Tracé_11" data-name="Tracé 11" d="M84.005,300.646H92.81v2.611H87.069v3.5h4.878v2.612H87.069v6.388H84.005Z" transform="translate(-84.005 -274.653)"/>
        <path id="Tracé_12" data-name="Tracé 12" d="M132.1,300.646h4.619c3.323,0,5.374,1.705,5.374,4.511a4.11,4.11,0,0,1-2.417,3.906l4.748,6.69H140.75l-4.014-6.108h-1.576v6.108H132.1Zm3.065,2.611v3.777h1.727a1.895,1.895,0,1,0,0-3.777Z" transform="translate(-120.593 -274.653)"/>
        <path id="Tracé_13" data-name="Tracé 13" d="M192.042,300.646h4.014l5.719,15.107h-3.259l-1.446-3.928h-6.043l-1.446,3.928h-3.259Zm4.079,8.568-2.072-5.676-2.072,5.676Z" transform="translate(-161.849 -274.653)"/>
        <path id="Tracé_14" data-name="Tracé 14" d="M260.67,300.646H264.6l6.755,10.813V300.646h3.064v15.107H270.49L263.735,304.9v10.856H260.67Z" transform="translate(-218.412 -274.653)"/>
        <path id="Tracé_15" data-name="Tracé 15" d="M342.395,309.869l2.417,1.856a7.507,7.507,0,0,1-5.18,3l-1.878,3.129h-2.719l1.9-3.173a8,8,0,1,1,7.877-12.776l-2.417,1.878a4.724,4.724,0,0,0-3.949-2.072,5.121,5.121,0,0,0,0,10.23A4.724,4.724,0,0,0,342.395,309.869Z" transform="translate(-271.476 -273.28)"/>
        <path id="Tracé_16" data-name="Tracé 16" d="M399.025,300.646h4.014l5.719,15.107H405.5l-1.446-3.928h-6.043l-1.446,3.928h-3.259Zm4.079,8.568-2.072-5.676-2.072,5.676Z" transform="translate(-319.322 -274.653)"/>
        <path id="Tracé_17" data-name="Tracé 17" d="M467.653,300.646h3.065v15.107h-3.065Z" transform="translate(-375.885 -274.653)"/>
        <path id="Tracé_18" data-name="Tracé 18" d="M494.688,310.236a4.356,4.356,0,0,0,3.345,1.856,1.7,1.7,0,0,0,1.942-1.748c0-2.7-6.906-2.093-6.906-7.122a4.517,4.517,0,0,1,4.834-4.381,6.674,6.674,0,0,1,5.287,2.547l-2.245,2.007a3.992,3.992,0,0,0-3.021-1.878,1.6,1.6,0,0,0-1.748,1.576c0,2.7,6.906,2.072,6.906,7.187-.043,2.806-2.245,4.532-5.007,4.532a6.814,6.814,0,0,1-5.611-2.525Z" transform="translate(-394.762 -273.28)"/>
        <path id="Tracé_19" data-name="Tracé 19" d="M550.3,300.646h8.805v2.611h-5.741v3.5h4.878v2.612h-4.878v3.777h5.741v2.611H550.3Z" transform="translate(-438.765 -274.653)"/>
      </g>
    </g>
    <g id="Groupe_5" data-name="Groupe 5" transform="translate(40.114 88.955)">
      <path id="Tracé_20" data-name="Tracé 20" d="M133.134,525.938c.41,0,.764.31.576,1.1l-1.905.443c.333-.886.886-1.539,1.329-1.539m1.052,3.068h-.377a2.288,2.288,0,0,1-1.5,1.008c-.521,0-.786-.31-.786-1.008a4.176,4.176,0,0,1,.089-.842l3.068-1.008c.6-1.418-.122-2.038-.964-2.038-1.451,0-3.1,2.426-3.1,4.552,0,.953.454,1.473,1.163,1.473.831,0,1.695-.809,2.4-2.138m-.609-4.453,2.16-2.016V522.3h-1.163l-1.329,2.248Zm-6.624,1.418h1.019l-1.617,4.419a.513.513,0,0,0,.443.753,3.761,3.761,0,0,0,2.924-2.149h-.288a4.031,4.031,0,0,1-1.872,1.13l1.484-4.154h1.517l.188-.632h-1.473l.565-1.595h-.587l-1.052,1.595-1.251.177Zm-1.373-.211a.454.454,0,0,0-.366-.643,2.852,2.852,0,0,0-2.359,1.916h.288a2.257,2.257,0,0,1,1.229-.941l-1.695,4.408a.441.441,0,0,0,.365.643,2.793,2.793,0,0,0,2.248-1.916H125a2.258,2.258,0,0,1-1.229.942Zm.31-2.215a.731.731,0,1,0-.731-.731.73.73,0,0,0,.731.731m-9.758,6.779c-.222.5.011.82.5.82.3,0,.432-.077.554-.4l1.174-3.112a4.215,4.215,0,0,1,2.1-1.374c.321,0,.277.266.066.665l-1.805,3.467a.509.509,0,0,0,.443.753,2.852,2.852,0,0,0,2.359-1.916h-.288a2.258,2.258,0,0,1-1.229.942l1.551-3.135a2.512,2.512,0,0,0,.3-1.074.763.763,0,0,0-.82-.842c-.764,0-1.54.864-2.459,1.927v-.82c0-.587-.188-1.108-.72-1.108-.332,0-.653.288-.953.7v.111c.576-.033.831.831.421,1.739Zm-.022-3.854c.21-.72.1-1.351-.454-1.351-.653,0-.819.5-1.484,1.927v-.82c0-.587-.188-1.108-.72-1.108-.62,0-1.185.964-1.617,1.916h.288c.3-.432.576-.687.8-.687.266,0,.41.41,0,1.318l-1.2,2.658c-.222.5.011.82.5.82a.494.494,0,0,0,.554-.4l1.174-3.112c.332-.41.631-.764,1.008-1.163Zm-6.8-.532c.41,0,.764.31.576,1.1l-1.9.443c.332-.886.886-1.539,1.329-1.539m1.052,3.068h-.377a2.288,2.288,0,0,1-1.5,1.008c-.521,0-.786-.31-.786-1.008a4.177,4.177,0,0,1,.089-.842l3.068-1.008c.6-1.418-.122-2.038-.964-2.038-1.451,0-3.1,2.426-3.1,4.552,0,.953.454,1.473,1.163,1.473.831,0,1.695-.809,2.4-2.138m-7.233-3.035h1.019l-1.617,4.419a.513.513,0,0,0,.443.753,3.761,3.761,0,0,0,2.924-2.149h-.288a4.032,4.032,0,0,1-1.872,1.13l1.484-4.154h1.517l.188-.632h-1.473l.565-1.595h-.587l-1.052,1.595-1.252.177Zm-5.593,3.445c0-1.362,1.517-3.212,2.37-3.212a1.916,1.916,0,0,1,.521.066l-.886,2.359c-.509.621-1.3,1.374-1.661,1.374-.21,0-.343-.177-.343-.587m4.663-4.552-.465-.033-.521.51H101.1c-2.525,0-4.708,2.836-4.708,4.9a.838.838,0,0,0,.908.908c.653,0,1.3-.93,2.016-1.927l-.033.354c-.089,1.019.222,1.573.753,1.573.62,0,1.185-.964,1.617-1.916h-.288c-.3.432-.576.687-.8.687s-.4-.421,0-1.318Zm-5.383,1.606c.211-.72.1-1.351-.454-1.351-.654,0-.82.5-1.484,1.927v-.82c0-.587-.188-1.108-.72-1.108-.62,0-1.185.964-1.617,1.916h.288c.3-.432.576-.687.8-.687.266,0,.41.41,0,1.318l-1.2,2.658c-.222.5.011.82.5.82.3,0,.432-.077.554-.4l1.174-3.112c.332-.41.631-.764,1.008-1.163Zm-8.484,4.453.111-.344c-1.473-.277-1.661-.277-1.074-1.883l.6-1.65h1.628c.731,0,.742.3.631,1.1h.421l.975-2.669H91.2c-.365.631-.653,1.1-1.451,1.1H88.142l.853-2.337c.266-.742.421-.9,1.418-.9h.709c1.03,0,1.152.277,1.152,1.318h.41l.344-1.816H86.912l-.111.343c1.185.244,1.3.355.742,1.883L86.214,528.7c-.554,1.518-.786,1.639-2.149,1.883l-.1.344Z" transform="translate(-83.966 -494.259)"/>
      <path id="Tracé_21" data-name="Tracé 21" d="M118.3,463.263c.41,0,.764.31.576,1.1l-1.905.443c.332-.886.886-1.54,1.329-1.54m1.052,3.068h-.376a2.288,2.288,0,0,1-1.5,1.008c-.521,0-.786-.31-.786-1.008a4.162,4.162,0,0,1,.089-.842l3.068-1.008c.6-1.418-.122-2.038-.964-2.038-1.451,0-3.1,2.426-3.1,4.553,0,.952.454,1.473,1.163,1.473.831,0,1.695-.808,2.4-2.138m-.609-4.453,2.16-2.016v-.233h-1.163l-1.329,2.249Zm-6.624,1.418h1.019l-1.617,4.42a.513.513,0,0,0,.443.753,3.761,3.761,0,0,0,2.924-2.149H114.6a4.026,4.026,0,0,1-1.872,1.13l1.484-4.154h1.517l.189-.631h-1.473l.565-1.6h-.587l-1.052,1.6-1.252.177Zm-1.373-.211a.454.454,0,0,0-.366-.642,2.853,2.853,0,0,0-2.359,1.917h.288a2.258,2.258,0,0,1,1.229-.942l-1.695,4.409a.441.441,0,0,0,.366.642,2.793,2.793,0,0,0,2.248-1.916h-.288a2.256,2.256,0,0,1-1.229.941Zm.31-2.215a.731.731,0,1,0-.731-.731.73.73,0,0,0,.731.731m-5.893,6.624,3.09-8.1-.1-.122-1.938.221v.233l.377.288c.343.266.232.521-.077,1.34l-2.415,6.358a.509.509,0,0,0,.443.753,2.72,2.72,0,0,0,2.248-1.916h-.288a2.5,2.5,0,0,1-1.34.941m-5.87-.753c0-1.362,1.517-3.212,2.37-3.212a1.913,1.913,0,0,1,.52.067l-.886,2.359c-.51.62-1.3,1.374-1.661,1.374-.21,0-.343-.177-.343-.587m4.663-4.553-.465-.033-.52.51h-.111c-2.525,0-4.708,2.835-4.708,4.9a.838.838,0,0,0,.908.908c.653,0,1.3-.93,2.016-1.927l-.033.354c-.089,1.019.221,1.573.753,1.573.62,0,1.185-.963,1.617-1.916h-.288c-.3.432-.576.687-.8.687s-.4-.421,0-1.318Zm-11.276,7.355c0-.587.565-.952,1.373-1.274a10.021,10.021,0,0,0,1.2.454c.842.277,1.163.388,1.163.642,0,.543-.919.953-2.171.953-1.052,0-1.562-.222-1.562-.776m2.293-3.578c-.366,0-.51-.31-.51-.665,0-.986.532-2.437,1.362-2.437.365,0,.509.31.509.664,0,.986-.532,2.437-1.362,2.437M97.38,469c0-.709-.631-.964-1.662-1.274-.886-.266-1.285-.343-1.285-.631a.905.905,0,0,1,.565-.709,2.583,2.583,0,0,0,2.392-2.481,1.491,1.491,0,0,0-.122-.609H98.5l.188-.631H96.737a1.505,1.505,0,0,0-.786-.222,2.569,2.569,0,0,0-2.536,2.448,1.426,1.426,0,0,0,1.174,1.473c-.72.321-1.119.7-1.119,1.141a.7.7,0,0,0,.3.6c-1.661.487-2.315,1.041-2.315,1.828,0,.764,1.008,1.085,2.2,1.085,2.027,0,3.722-1.1,3.722-2.016m-7.743-4.741c.731,0,.742.3.631,1.1h.421l.975-2.669h-.421c-.366.631-.653,1.1-1.451,1.1H88.186l.808-2.226c.266-.742.421-.886,1.418-.886h.709c1.03,0,1.152.277,1.152,1.307h.41l.344-1.817H86.912l-.111.344c1.185.243,1.3.354.742,1.883l-1.329,3.633c-.554,1.517-.786,1.639-2.149,1.883l-.1.343h6.8l1.218-1.927H91.52a4.46,4.46,0,0,1-3.112,1.429c-1.805,0-1.639-.078-1.041-1.728l.642-1.761Zm.886-4.641,2.16-1.484V457.9H91.376l-1.2,1.717Z" transform="translate(-83.966 -445.43)"/>
      <path id="Tracé_22" data-name="Tracé 22" d="M117.583,409.747c.41,0,.764.31.576,1.1l-1.9.443c.332-.886.886-1.54,1.329-1.54m1.052,3.068h-.377a2.288,2.288,0,0,1-1.5,1.008c-.521,0-.786-.31-.786-1.008a4.18,4.18,0,0,1,.089-.842l3.068-1.008c.6-1.418-.122-2.038-.963-2.038-1.451,0-3.1,2.426-3.1,4.552,0,.953.454,1.473,1.163,1.473.831,0,1.695-.809,2.4-2.138m-.609-4.453,2.16-2.016v-.232h-1.163l-1.329,2.248Zm-6.347,1.418h.809l-1.617,4.42a.513.513,0,0,0,.443.753,3.761,3.761,0,0,0,2.924-2.149h-.288a4.027,4.027,0,0,1-1.872,1.13l1.484-4.154h1.517l.188-.631h-1.473l.565-1.595h-.587l-1.052,1.595-1.041.177Zm-.8.5c.21-.72.1-1.351-.454-1.351-.653,0-.819.5-1.484,1.927v-.82c0-.587-.188-1.107-.72-1.107-.62,0-1.185.963-1.617,1.916h.288c.3-.432.576-.687.8-.687.266,0,.41.41,0,1.318l-1.2,2.658c-.222.5.011.82.5.82.3,0,.432-.078.554-.4l1.174-3.113c.332-.41.631-.764,1.008-1.163Zm-6.8-.532c.41,0,.764.31.576,1.1l-1.9.443c.332-.886.886-1.54,1.329-1.54m1.052,3.068h-.377a2.287,2.287,0,0,1-1.5,1.008c-.521,0-.786-.31-.786-1.008a4.178,4.178,0,0,1,.088-.842l3.068-1.008c.6-1.418-.122-2.038-.963-2.038-1.451,0-3.1,2.426-3.1,4.552,0,.953.454,1.473,1.163,1.473.831,0,1.695-.809,2.4-2.138m-7.521,1.241c-.3,0-.731-.277-.731-.521a6.171,6.171,0,0,1,.3-.853l.5-1.318c.531-.631,1.34-1.307,1.794-1.307.277,0,.487.177.487.587,0,1.207-1.13,3.412-2.348,3.412m3.489-3.9c0-.9-.332-1.229-.953-1.229-.775,0-1.506.819-2.237,1.816l1.85-4.863-.1-.122-1.938.221v.233l.377.288c.343.266.233.543-.077,1.34l-1.994,5.139a5.84,5.84,0,0,0-.321.941c0,.532.72,1.03,1.373,1.03,1.506,0,4.021-2.714,4.021-4.8m-6.026-.587a.454.454,0,0,0-.365-.642,2.852,2.852,0,0,0-2.359,1.916h.288a2.256,2.256,0,0,1,1.229-.941l-1.695,4.408a.441.441,0,0,0,.366.643,2.794,2.794,0,0,0,2.248-1.916H94.5a2.256,2.256,0,0,1-1.229.941Zm.31-2.215a.731.731,0,1,0-.731-.731.73.73,0,0,0,.731.731m-4.464-.709H86.89l-.111.343c1.185.244,1.3.354.742,1.883l-1.307,3.633c-.554,1.517-.786,1.639-2.149,1.883l-.1.343H90.1l1.329-2.37h-.465c-.753.831-1.639,1.872-3,1.872-1.03,0-1.152-.177-.6-1.728l1.307-3.633c.543-1.517.786-1.639,2.149-1.883Z" transform="translate(-83.966 -405.76)"/>
    </g>
    <g id="Groupe_6" data-name="Groupe 6" transform="translate(40.07 11.939)">
      <path id="Tracé_23" data-name="Tracé 23" d="M106.59,101.478c.215-.215.433-.447.649-.679h0a12.9,12.9,0,0,1,1.264-1.29,4.225,4.225,0,0,1,.412-.33c.038-.038.038-.114.076-.152-.19.076-.3.227-.493.3-.038,0-.076-.038-.038-.076l.4-.3h-.026c-.038,0-.038-.038-.038-.076a1.543,1.543,0,0,0-1.213.569c-.076.038-.152-.038-.189-.038-.569.189-.986.682-1.554.91v-.076a7.251,7.251,0,0,1-.682.265,4.047,4.047,0,0,1-.948.038,12.8,12.8,0,0,0-1.379.245l-.04.01a3.2,3.2,0,0,0-.706.284l-.026.015c-.019.024-.037.046-.055.066a.919.919,0,0,1-.26.227,3.827,3.827,0,0,0-.629.493.107.107,0,0,1-.061.019c-.2.195-.4.393-.61.584a.191.191,0,0,1-.116.014l0,0,.022-.036c.032-.054.064-.107.1-.16s.074-.118.112-.176c.052-.078.1-.156.161-.231a.035.035,0,0,0,0-.05.073.073,0,0,0-.052-.02,3.594,3.594,0,0,1,.636-.475v-.006c-.025.009-.062-.011-.043-.038s.043-.069.065-.1l.012-.034-.029-.03a1.445,1.445,0,0,0-.178.124c-.091.082-.162.249-.3.247a.224.224,0,0,1-.057-.008.107.107,0,0,1-.04-.014l.005-.009.005-.011.006-.01.018-.033.018-.033.015-.026.027-.048.02-.034.049-.084.023-.04.04-.069a.045.045,0,0,0-.028-.068.867.867,0,0,1,.26-.226h-.011c.145-.073.29-.162.435-.243l.063-.054a2.558,2.558,0,0,0-.6.3.3.3,0,0,0-.064.034.094.094,0,0,1-.094-.034.044.044,0,0,1-.009-.028c.038-.076.152-.114.227-.189.038,0,.076,0,.076.038,1.213-.948,2.881-.72,4.284-1.213l.341-.227c.189-.076.341-.265.569-.379a1.659,1.659,0,0,0,.644-.872.132.132,0,0,0-.038-.076,5.838,5.838,0,0,1-1.668,1.251,7.114,7.114,0,0,1-2.5.455c.038-.076.114-.076.19-.076,0-.114.076-.152.152-.227h.114c.038,0,.038-.076.076-.076.076,0,.19-.038.152-.038-.114-.152-.341.114-.531,0,.076-.076.038-.19.114-.227h.152a.265.265,0,0,1,.076-.152c.569-.341,1.1-.607,1.63-.91-.114,0-.189.114-.3.038.076,0,0-.114.076-.114.417-.114.758-.341,1.175-.493-.152,0-.265.114-.417,0,.076-.038.114-.114.227-.114v-.114c0-.038.038-.038.076-.038a.132.132,0,0,1-.076-.038c.038-.076.152-.038.227-.114-.038,0-.114,0-.114-.038a.752.752,0,0,1,.493-.227c-.038-.076-.152,0-.152-.076,0-.038.038-.038.076-.038h-.076c-.076-.038-.038-.114-.038-.151a2.649,2.649,0,0,0,.341-.91c-.038,0-.076,0-.076-.038a3.111,3.111,0,0,1-1.554.72h-.19a.769.769,0,0,1-.644-.038,2.647,2.647,0,0,1-.379-.3,4.357,4.357,0,0,0-.947-.455,8.513,8.513,0,0,0-2.919-.417,6.342,6.342,0,0,1,1.327-.379,5.65,5.65,0,0,1,1.933-.379,1.267,1.267,0,0,0-.379,0,6.242,6.242,0,0,0-1.63.227c-.379.076-.72.227-1.1.3-.227.076-.341.3-.607.265V94.82a2.182,2.182,0,0,1,1.441-.947,7.144,7.144,0,0,1,2.009.076,9.575,9.575,0,0,1,1.44.265c.189,0,.227.3.379.341.227.076.455,0,.682.152,0-.076-.038-.152,0-.227.152-.152.341.038.493-.038.3-.19-.265-.531-.417-.8a.132.132,0,0,1,.038-.076,4.4,4.4,0,0,0,.91.758c.189.076.644.19.569-.038a6.058,6.058,0,0,0-.872-1.137V93c-.076,0-.076-.038-.114-.076v-.152c-.152-.076-.114-.227-.19-.341-.114-.19-.038-.455-.114-.682a3.956,3.956,0,0,1-.152-.644c-.114-.644-.265-1.213-.341-1.82-.076-.72.417-1.289.758-1.933A3.245,3.245,0,0,1,106.9,86.14a3.33,3.33,0,0,1,.72-1.213,3.156,3.156,0,0,1,1.17-.758,10.062,10.062,0,0,1,1.008-.385H83.784v20.06h18.424a16.682,16.682,0,0,1,2.45-1.263A9.768,9.768,0,0,0,106.59,101.478Zm-5.829-2.716c-.076,0-.227.038-.19-.038.038-.19.3-.19.455-.266.076-.038.189-.114.265-.076.076.114.189.076.266.152C101.329,98.763,101.026,98.649,100.761,98.763Zm-5.8-.834a.133.133,0,0,1-.038-.076,11.715,11.715,0,0,0,1.213-1.933,5.228,5.228,0,0,0,1.289-1.061,7.376,7.376,0,0,1,2.123-1.668,1.47,1.47,0,0,1,.986.038c-.114.151-.3.114-.455.227a.14.14,0,0,1-.114-.038A.139.139,0,0,0,100,93.3c-.379.417-.91.607-1.213,1.1-.227.379-.379.872-.872.986-.152.038.038-.114-.038-.076A12.784,12.784,0,0,0,94.961,97.929Zm3.146-2.5c-.038.076-.08.084-.114.152a.3.3,0,0,1-.152.152c-.038,0-.076,0-.076-.038a.463.463,0,0,1,.3-.341C98.107,95.351,98.107,95.389,98.107,95.427Zm1.761,5.68a.332.332,0,0,1-.094.111c.047.01.081.031.05.059a.83.83,0,0,1-.288.2.308.308,0,0,1-.058.008c-.046.045-.093.09-.142.133s-.253.011-.189-.045c.1-.085.185-.178.28-.265a1.875,1.875,0,0,0,.158-.151.458.458,0,0,1,.081-.084C99.7,101.05,99.9,101.032,99.868,101.107Zm-.679-.313-.009.007c-.142.1-.283.2-.433.289s-.332.166-.5.245a.036.036,0,0,0,0-.009.05.05,0,0,0-.064-.015,1.81,1.81,0,0,0-.382.29l-.053.051,0,0,0,0-.054.054-.006.006,0,0c-.027.027-.053.054-.083.089a.213.213,0,0,1-.05.053c-.024.016-.089.015-.083-.028,0,0,0-.005,0-.007l-.067.034c-.021.01-.04.021-.059.033a.064.064,0,0,0-.026,0,.046.046,0,0,0-.027.009c-.046.036-.092.075-.137.115a1.958,1.958,0,0,0-.22.234l0,0-.007.011-.011.015-.012.016,0,0c-.009.012-.017.025-.026.038v0a.055.055,0,0,1-.031.015l-.015-.022-.011-.018c-.011-.02-.022-.04-.032-.061v0l-.009-.019c.041-.044.081-.09.119-.136l.007-.009.039-.049.064-.081.023-.03c.042-.054.081-.107.118-.16l0,0,.016-.024c.018-.027.036-.054.052-.082s.029-.05.042-.076l0-.006,0-.008.006-.014c.013-.028.025-.058.036-.089l0-.01.008-.025c0-.014.008-.028.012-.042h0l0-.009c0-.018.01-.036.013-.055a.037.037,0,0,0,0-.026,1.22,1.22,0,0,1,.15-.2l-.017.01c-.054.035-.09.084-.141.122s-.117-.02-.068-.057a.952.952,0,0,0,.086-.078l0-.006a1.9,1.9,0,0,1,.193-.192c.044-.032.082-.058.117-.089l.017-.015a.837.837,0,0,1,.085-.1l0,0c.363-.35.974-.334,1.452-.558.189-.076.417.038.606,0a.564.564,0,0,1,.341.076C99.814,100.389,99.5,100.6,99.188,100.793Zm.776-2.637c-.038-.038.114,0,.152-.076h-.3c-.038,0-.038-.038-.038-.076-.19.038-.417.114-.607.152-.265.076-.493.266-.8.341-.417.152-.758.493-1.213.644-.038,0-.038-.038-.038-.076.038-.114.19-.152.265-.266,0-.038,0-.076-.038-.076a6.817,6.817,0,0,1,1.1-.986v-.114c.114-.152.3-.227.379-.417a.683.683,0,0,1,.379-.341c-.038-.038-.114-.038-.114-.114-.152,0-.3.076-.455-.038a.537.537,0,0,1,.238-.135.137.137,0,0,1-.086-.055c-.038-.076.073-.161.189-.189.152-.038.341-.038.455-.152-.266-.038-.569.076-.834-.076a2.024,2.024,0,0,1,.948-1.137c.038,0,.114,0,.114.038a.369.369,0,0,1-.3.379,4.008,4.008,0,0,1,.91.227c-.038.076-.114.038-.152.038.19.114.417.038.607.189-.114.114-.227,0-.341,0a9.924,9.924,0,0,1,3.412,1.365,10.428,10.428,0,0,1-2.616.8.836.836,0,0,1-.3-.038c0,.038,0,.114-.038.114a.624.624,0,0,0-.379.076C100.306,98.232,100.078,98.27,99.965,98.156Z" transform="translate(-83.784 -83.784)" fill="#000091"/>
      <path id="Tracé_24" data-name="Tracé 24" d="M236.931,83.784H215.352a.956.956,0,0,1,.2.095c.175.094.4.215.544.29a1.791,1.791,0,0,1,.723.606c.076.114.189.341.114.493-.076.19-.114.493-.3.569a1.407,1.407,0,0,1-.8.076,1.9,1.9,0,0,1-.455-.076,3.085,3.085,0,0,1,1.478,1.023c.038.076.189.114.341.114.038,0,.038.076.038.114-.076.076-.152.114-.114.227h.114c.189-.076.152-.455.417-.341a.428.428,0,0,1,.152.569,4.031,4.031,0,0,1-.455.379.325.325,0,0,0,0,.265,1.168,1.168,0,0,1,.19.455c.114.265.152.569.265.834a5.335,5.335,0,0,1,.265,1.706c0,.3-.152.569-.038.872a3.19,3.19,0,0,0,.417.8,5.785,5.785,0,0,1,.417.606c.228.379.644.758.455,1.213-.114.265-.531.227-.8.379-.227.19-.038.493.076.682.189.341-.227.569-.493.682.076.114.227.076.265.152.038.19.227.3.114.493-.152.227-.607.341-.379.682a1,1,0,0,1-.038.834.929.929,0,0,1-.682.569,1.546,1.546,0,0,1-.72.038.541.541,0,0,0-.227-.076,16.911,16.911,0,0,0-1.933-.265,2.179,2.179,0,0,0-.531.152,3.385,3.385,0,0,0-.459.406l0,.005c-.028.03-.056.061-.083.092l-.049.058-.032.039a3.59,3.59,0,0,0-.3.437l-.017.029-.029.053a3.664,3.664,0,0,0-.287.7,2.281,2.281,0,0,0,.036,1.794c.05.05,1.251.421,2.088.793a7.071,7.071,0,0,1,.895.453h21.19Z" transform="translate(-181.766 -83.784)" fill="#e1000f"/>
      <path id="Tracé_25" data-name="Tracé 25" d="M224.859,113.19c.152.038.379.038.379.114-.076.3-.531.379-.758.682h-.114c-.114.076-.076.265-.189.265a.535.535,0,0,0-.341.038.65.65,0,0,0,.569.227.169.169,0,0,1,.114.152.117.117,0,0,0,.076-.038c.038,0,.076,0,.076.038v.151c-.114.152-.3.076-.455.114a1.7,1.7,0,0,0,.872,0c.227-.076,0-.455.152-.645-.076,0,0-.114-.076-.114.076-.076.151-.189.227-.227a.269.269,0,0,0,.227-.114c0-.076-.151-.114-.114-.189.227-.151.417-.379.341-.607-.038-.114-.341-.114-.531-.189a1.263,1.263,0,0,0-.644.038,3.165,3.165,0,0,0-.569.151,2.623,2.623,0,0,0-.72.379,5.378,5.378,0,0,1,.834-.227A2.485,2.485,0,0,1,224.859,113.19Z" transform="translate(-189.99 -105.872)" fill="#9d9d9c"/>
    </g>
  </g>
</svg>
